#!OML:ASF H:\LiuWeirdWalks\Patient Classification 1\Patient 1\Session 1\male.ASF
:FULLY-SPECIFIED
:DEGREES
546
root 1.00884 17.2148 29.2846 2.90192 8.72497 -1.51341
lowerback 14.5589 -0.513728 -4.60652
upperback -3.08376 -1.34749 1.91684
thorax -11.4557 -0.239144 5.0496
lowerneck -16.48 0.231385 8.11471
upperneck 20.1218 -0.734865 -4.76955
head 8.9789 -0.242323 -3.07658
rclavicle 3.26131e-014 -1.6847e-014
rhumerus -43.3688 -0.849915 -77.4103
rradius 32.462
rwrist -3.81932
rhand -22.3132 1.86502
rfingers 7.12502
rthumb 4.10629 -28.0752
lclavicle 3.26131e-014 -1.6847e-014
lhumerus -37.8665 -9.80121 84.7924
lradius 47.457
lwrist 3.2276
lhand -17.3811 -7.89704
lfingers 7.12502
lthumb 8.8676 21.8966
rfemur -20.3503 -16.9227 15.3938
rtibia 89.5344
rfoot -2.31217 -11.4229
rtoes -7.36345
lfemur -19.8772 -5.61181 -23.6002
ltibia 49.4729
lfoot -17.3112 13.9195
ltoes -16.9917
547
root 1.00212 17.1958 29.3842 3.14986 8.68664 -1.22064
lowerback 14.7073 -0.433978 -4.73356
upperback -3.14195 -1.2915 1.74573
thorax -11.6182 -0.203846 4.9263
lowerneck -16.7266 0.15242 7.94824
upperneck 20.0341 -0.886469 -4.48826
head 8.98637 -0.298701 -2.97059
rclavicle 1.50671e-014 -1.97573e-014
rhumerus -43.4078 -0.769303 -77.4504
rradius 32.7613
rwrist -3.92174
rhand -22.2594 1.67843
rfingers 7.12502
rthumb 4.15829 -28.2607
lclavicle 1.50671e-014 -1.97573e-014
lhumerus -37.9594 -10.2301 84.5595
lradius 48.0522
lwrist 3.16943
lhand -17.2533 -7.751
lfingers 7.12502
lthumb 8.99088 22.0374
rfemur -20.7846 -17.1043 14.924
rtibia 90.2216
rfoot -2.269 -11.0703
rtoes -7.67984
lfemur -19.7215 -4.9801 -23.7683
ltibia 49.4276
lfoot -17.7111 13.4288
ltoes -17.2939
548
root 0.995794 17.1812 29.4867 3.37531 8.60796 -0.989818
lowerback 14.7817 -0.401534 -4.94484
upperback -3.17398 -1.30381 1.64823
thorax -11.6965 -0.195419 4.94541
lowerneck -16.9216 0.161696 7.91982
upperneck 19.9098 -0.921641 -4.3229
head 8.97881 -0.302898 -2.91241
rclavicle -3.64343e-014 9.39258e-015
rhumerus -43.4263 -0.421019 -77.5755
rradius 33.1096
rwrist -4.10458
rhand -22.2308 1.42884
rfingers 7.12502
rthumb 4.18588 -28.5098
lclavicle -3.64343e-014 9.39258e-015
lhumerus -38.1368 -10.3546 84.2462
lradius 48.6615
lwrist 3.02011
lhand -17.1658 -7.63556
lfingers 7.12502
lthumb 9.07534 22.1492
rfemur -21.2296 -17.2991 14.4874
rtibia 90.9442
rfoot -2.20865 -10.6928
rtoes -7.92227
lfemur -19.4177 -4.33204 -23.8802
ltibia 49.1772
lfoot -18.1636 13.0242
ltoes -17.4537
549
root 0.989224 17.1725 29.5933 3.57449 8.49865 -0.855477
lowerback 14.7793 -0.420867 -5.21272
upperback -3.18044 -1.38294 1.63536
thorax -11.6892 -0.214612 5.10347
lowerneck -17.0801 0.259744 8.02688
upperneck 19.7678 -0.840982 -4.27388
head 8.965 -0.255472 -2.90209
rclavicle 4.05824e-014 1.37534e-014
rhumerus -43.4396 0.19581 -77.7872
rradius 33.5228
rwrist -4.35358
rhand -22.2247 1.13789
rfingers 7.12502
rthumb 4.19181 -28.8006
lclavicle 4.05824e-014 1.37534e-014
lhumerus -38.4018 -10.2068 83.864
lradius 49.2723
lwrist 2.82743
lhand -17.1221 -7.5204
lfingers 7.12502
lthumb 9.11748 22.2625
rfemur -21.6761 -17.5031 14.1312
rtibia 91.6888
rfoot -2.13568 -10.3064
rtoes -7.99958
lfemur -18.955 -3.69096 -23.8992
ltibia 48.7022
lfoot -18.6467 12.7298
ltoes -17.4904
550
root 0.982497 17.171 29.7044 3.76116 8.35837 -0.785903
lowerback 14.7013 -0.432735 -5.3995
upperback -3.1716 -1.43215 1.62028
thorax -11.6243 -0.228301 5.20221
lowerneck -17.2981 0.339221 8.09955
upperneck 19.7022 -0.792747 -4.17648
head 8.98661 -0.219387 -2.8754
rclavicle -1.84854e-014 7.7526e-015
rhumerus -43.5429 0.826249 -78.0333
rradius 34.0415
rwrist -4.6472
rhand -22.2245 0.782666
rfingers 7.12502
rthumb 4.19199 -29.1558
lclavicle -1.84854e-014 7.7526e-015
lhumerus -38.7204 -10.0876 83.4725
lradius 49.8617
lwrist 2.66684
lhand -17.165 -7.43612
lfingers 7.12502
lthumb 9.07612 22.3486
rfemur -22.1353 -17.726 13.8185
rtibia 92.451
rfoot -2.02756 -9.9013
rtoes -7.93996
lfemur -18.3362 -3.09428 -23.865
ltibia 47.986
lfoot -19.1248 12.5742
ltoes -17.4028
551
root 0.976793 17.1776 29.8218 3.93878 8.19568 -0.733377
lowerback 14.519 -0.546267 -5.84385
upperback -3.11621 -1.64446 1.73723
thorax -11.4145 -0.30319 5.62788
lowerneck -17.5586 0.596337 8.40469
upperneck 19.6635 -0.513517 -4.3145
head 9.03916 -0.0834757 -2.94089
rclavicle 2.77289e-014 -1.21756e-015
rhumerus -43.5575 1.95438 -78.4099
rradius 34.6282
rwrist -5.02039
rhand -22.2172 0.402148
rfingers 7.12502
rthumb 4.19904 -29.5362
lclavicle 2.77289e-014 -1.21756e-015
lhumerus -39.1311 -9.5083 82.9988
lradius 50.4517
lwrist 2.54886
lhand -17.2952 -7.35587
lfingers 7.12502
lthumb 8.95045 22.4343
rfemur -22.5735 -17.9819 13.4757
rtibia 93.218
rfoot -1.8856 -9.45697
rtoes -7.66221
lfemur -17.5473 -2.5935 -23.8409
ltibia 47.027
lfoot -19.5422 12.5933
ltoes -17.2238
552
root 0.972275 17.1934 29.9462 4.10063 8.02533 -0.725096
lowerback 14.3001 -0.544897 -5.87028
upperback -3.06895 -1.63842 1.69071
thorax -11.2329 -0.309982 5.57942
lowerneck -18.0123 0.656711 8.46474
upperneck 19.7669 -0.511654 -4.2121
head 9.15879 -0.0674956 -2.92114
rclavicle 2.96655e-014 1.30949e-014
rhumerus -43.8417 2.5541 -78.6995
rradius 35.3659
rwrist -5.37767
rhand -22.1808 0.0199583
rfingers 7.12502
rthumb 4.23417 -29.9177
lclavicle 2.96655e-014 1.30949e-014
lhumerus -39.5106 -9.53499 82.6369
lradius 50.9769
lwrist 2.58939
lhand -17.4999 -7.28518
lfingers 7.12502
lthumb 8.75294 22.5133
rfemur -22.9683 -18.2746 13.1344
rtibia 93.9698
rfoot -1.70644 -8.98816
rtoes -7.44135
lfemur -16.594 -2.23239 -23.7997
ltibia 45.8345
lfoot -19.8485 12.7808
ltoes -16.9705
553
root 0.969058 17.2199 30.0769 4.23576 7.84024 -0.802063
lowerback 14.0146 -0.551385 -5.79954
upperback -3.01041 -1.61873 1.66112
thorax -11.0028 -0.31845 5.48831
lowerneck -18.4787 0.722019 8.5398
upperneck 19.9026 -0.503712 -4.1349
head 9.29237 -0.049378 -2.91243
rclavicle 7.647e-015 -9.44227e-015
rhumerus -44.2144 3.17066 -79.0113
rradius 36.1906
rwrist -5.7189
rhand -22.1063 -0.320395
rfingers 7.12502
rthumb 4.30611 -30.2566
lclavicle 7.647e-015 -9.44227e-015
lhumerus -39.9368 -9.5716 82.2834
lradius 51.4548
lwrist 2.71455
lhand -17.7094 -7.22803
lfingers 7.12502
lthumb 8.55082 22.5788
rfemur -23.3196 -18.559 12.86
rtibia 94.6917
rfoot -1.46371 -8.52266
rtoes -7.36549
lfemur -15.4949 -2.03424 -23.6969
ltibia 44.4389
lfoot -19.9875 13.1134
ltoes -16.7128
554
root 0.967942 17.2574 30.2138 4.35232 7.6429 -0.913912
lowerback 13.6702 -0.562747 -5.67165
upperback -2.95192 -1.59181 1.63682
thorax -10.7403 -0.328031 5.36697
lowerneck -18.9153 0.798975 8.658
upperneck 20.0481 -0.475317 -4.12361
head 9.42525 -0.0252236 -2.93105
rclavicle -2.32764e-014 2.42517e-014
rhumerus -44.6806 3.78858 -79.3295
rradius 37.0842
rwrist -6.01089
rhand -21.9769 -0.608171
rfingers 7.12502
rthumb 4.43108 -30.5418
lclavicle -2.32764e-014 2.42517e-014
lhumerus -40.4098 -9.6127 81.9467
lradius 51.8522
lwrist 2.83972
lhand -17.894 -7.20641
lfingers 7.12502
lthumb 8.37262 22.6076
rfemur -23.6253 -18.8397 12.5906
rtibia 95.3801
rfoot -1.15092 -8.04946
rtoes -7.39752
lfemur -14.2734 -2.02269 -23.5932
ltibia 42.873
lfoot -19.909 13.5724
ltoes -16.5043
555
root 0.967864 17.3065 30.355 4.42864 7.4338 -1.11483
lowerback 13.3136 -0.576197 -5.44969
upperback -2.89991 -1.54919 1.63903
thorax -10.4813 -0.334135 5.21805
lowerneck -19.3048 0.867127 8.75686
upperneck 20.2131 -0.446695 -4.12662
head 9.55658 -0.00321214 -2.95139
rclavicle -2.75752e-014 -5.96354e-016
rhumerus -45.2327 4.4115 -79.6496
rradius 38.0106
rwrist -6.25954
rhand -21.7903 -0.830418
rfingers 7.12502
rthumb 4.61125 -30.7602
lclavicle -2.75752e-014 -5.96354e-016
lhumerus -40.9273 -9.64255 81.6347
lradius 52.153
lwrist 2.97749
lhand -18.0295 -7.21798
lfingers 7.12502
lthumb 8.24191 22.6013
rfemur -23.8803 -19.0912 12.4072
rtibia 96.0242
rfoot -0.756013 -7.60425
rtoes -7.50112
lfemur -12.9559 -2.18698 -23.4232
ltibia 41.1917
lfoot -19.5764 14.0994
ltoes -16.3687
556
root 0.969974 17.3664 30.5002 4.48022 7.20028 -1.32344
lowerback 12.9391 -0.5783 -5.19206
upperback -2.85433 -1.48688 1.63846
thorax -10.2227 -0.332114 5.04186
lowerneck -19.6461 0.927522 8.85501
upperneck 20.3886 -0.417894 -4.1585
head 9.683 0.0161088 -2.98158
rclavicle 5.2181e-016 -1.12313e-014
rhumerus -45.8591 4.99206 -79.9566
rradius 38.9487
rwrist -6.45736
rhand -21.5509 -1.00315
rfingers 7.12502
rthumb 4.84243 -30.9278
lclavicle 5.2181e-016 -1.12313e-014
lhumerus -41.4602 -9.67237 81.3466
lradius 52.3262
lwrist 3.07664
lhand -18.0966 -7.25408
lfingers 7.12502
lthumb 8.17714 22.5677
rfemur -24.0907 -19.3187 12.202
rtibia 96.6295
rfoot -0.293383 -7.15407
rtoes -7.60923
lfemur -11.5734 -2.50246 -23.2845
ltibia 39.4468
lfoot -18.9703 14.668
ltoes -16.3617
557
root 0.972651 17.4371 30.6478 4.49285 6.93941 -1.60302
lowerback 12.5714 -0.568808 -4.86051
upperback -2.81092 -1.39755 1.66056
thorax -9.97433 -0.319305 4.84409
lowerneck -19.928 0.982119 8.94922
upperneck 20.5292 -0.383187 -4.22202
head 9.78671 0.0336988 -3.02038
rclavicle 2.80783e-014 -1.88845e-015
rhumerus -46.5288 5.5129 -80.233
rradius 39.8627
rwrist -6.58483
rhand -21.2659 -1.10579
rfingers 7.12502
rthumb 5.11759 -31.024
lclavicle 2.80783e-014 -1.88845e-015
lhumerus -41.9938 -9.67198 81.079
lradius 52.3784
lwrist 3.1022
lhand -18.0455 -7.21867
lfingers 7.12502
lthumb 8.22642 22.6012
rfemur -24.257 -19.4919 12.0748
rtibia 97.1809
rfoot 0.213063 -6.74442
rtoes -7.63747
lfemur -10.163 -2.90654 -23.0977
ltibia 37.7074
lfoot -18.0889 15.2206
ltoes -16.5233
